<?xml version="1.0" encoding="iso-8859-1"?>
<!-- Generator: Adobe Illustrator 19.0.0, SVG Export Plug-In . SVG Version: 6.00 Build 0)  -->
<svg version="1.1" id="Layer_1" xmlns="http://www.w3.org/2000/svg" xmlns:xlink="http://www.w3.org/1999/xlink" x="0px" y="0px"
	 viewBox="0 0 302.18 302.18" style="enable-background:new 0 0 302.18 302.18;" xml:space="preserve">
<g>
	<g>
		<path d="M221.435,137.104c0.008-1.228-0.252-2.532-0.692-3.884v-0.06h-0.02c-2.556-7.744-11.84-17.288-21.344-26.524
			c-1.296-1.26-2.444-2.376-3.356-3.296c-5.576-5.64-5.584-8.408-5.676-29.968c-0.012-2.992-0.028-6.332-0.056-10.076
			c-0.072-8.648-0.064-12.232-0.056-17.432l0.008-15.164c1.712-0.976,2.88-2.8,2.88-4.908V21.78c0-2.156-1.22-4.008-2.996-4.968
			V8.588c0-4.816-5.876-8.588-13.376-8.588h-6.34c-7.5,0-13.376,3.772-13.376,8.588v8.32c-1.676,0.988-2.812,2.788-2.812,4.872
			v4.012c0,2.428,1.544,4.492,3.7,5.296l0.008,14.776c0.008,5.2,0.016,8.784-0.056,17.432c-0.032,3.744-0.044,7.084-0.056,10.076
			c-0.088,21.56-0.1,24.328-5.676,29.968c-0.912,0.92-2.056,2.032-3.352,3.292c-9.504,9.24-18.792,18.788-21.348,26.532h-0.008v0.02
			c-0.448,1.368-0.712,2.684-0.708,3.924c0.124,20.424,0.188,41.604,0.192,64.816c-0.024,0-0.044,0-0.068,0
			c-20.372,0-42.296,4.096-42.296,13.092c0,0.3,0.084,0.576,0.132,0.864c-0.12,0.976-0.236,1.94-0.308,3.056l-2.94,44.892
			c-0.068,1.024-0.184,2.084-0.296,3.152c-0.268,2.488-0.548,5.06-0.308,7.568c1.948,20.468,25.06,27.632,48.108,27.632
			c2.164,0,4.328-0.064,6.476-0.188c7.496-0.424,17.784-1.836,26.216-5.924h40.592l0.428-0.232
			c3.136-1.7,18.772-10.548,18.748-17.868C221.18,221.14,221.188,177.696,221.435,137.104z M217.495,264.644h-15.924v-0.004V152.544
			h15.92C217.344,185.504,217.344,221.128,217.495,264.644z M216.883,148.684h-15.312v-11.668h15.312V148.684z M196.691,109.4
			c6.148,5.976,16.72,16.268,19.916,23.76h-15.528l-7.408-26.72C194.536,107.3,195.539,108.28,196.691,109.4z M176.299,268.5h23.068
			v9.028h-22.956C176.815,274.544,176.643,271.508,176.299,268.5z M175.796,264.644c-0.02-0.152-0.04-0.308-0.064-0.46
			c-0.212-1.468-0.42-2.92-0.576-4.336l-4.92-45.048l-0.084,0.008c-0.232-5.628-9.864-9.464-22.584-11.404v-50.86h51.796v112.1
			H175.796z M147.571,148.684v-11.668h51.796v11.668H147.571z M160.891,8.584c0-2.232,4.072-4.732,9.52-4.732h6.34
			c5.448,0,9.52,2.5,9.52,4.732v7.52h-25.38V8.584z M158.112,21.776c0-0.984,0.8-1.784,1.78-1.784h27.564
			c0.98,0,1.78,0.8,1.78,1.784v4.012c0,0.98-0.8,1.78-1.78,1.78h-27.564c-0.98,0-1.78-0.8-1.78-1.78V21.776z M169.367,31.46h2.576
			l-4.076,15.672h-2.576L169.367,31.46z M163.012,47.132h-1.224c0-0.42,0-0.836-0.004-1.276l-0.008-14.392h5.311L163.012,47.132z
			 M174.224,31.46h2.576l-4.076,15.672h-2.576L174.224,31.46z M179.076,31.456h2.576l-4.076,15.672H175L179.076,31.456z
			 M161.347,90.148h14.116V87.94h-13.996c0.16-3.768,0.184-8.448,0.208-14.56c0.012-2.988,0.028-6.324,0.056-10.06
			c0.056-6.636,0.064-10.3,0.06-13.988h19.728v-2.208h-1.664l4.076-15.672h2.456l-0.008,14.392
			c-0.008,5.208-0.016,8.804,0.056,17.472c0.032,3.74,0.044,7.076,0.056,10.06c0.076,18.056,0.108,23.932,3.832,29.212l8.472,30.564
			h-50.576l9.42-30.288C159.987,99.656,160.948,96.272,161.347,90.148z M151.479,109.392c0.988-0.956,1.844-1.8,2.624-2.572
			l-8.188,26.34h-14.36C134.751,125.668,145.328,115.372,151.479,109.392z M131.292,137.016h14.072v11.668h-14.072V137.016z
			 M145.363,152.544v50.544c-4.62-0.612-9.568-0.992-14.588-1.12c0-17.44-0.04-33.74-0.108-49.424H145.363z M126.852,205.808
			c24.08,0,39.444,5.452,39.444,9.204c0,0.708-0.548,1.476-1.596,2.256c-2.452-5.704-20.572-8.764-37.708-8.764
			c-16.74,0-34.38,2.928-37.484,8.376c-0.42-0.396-0.744-0.788-0.908-1.172c0.016-0.108,0.016-0.244,0.036-0.352l-0.12-0.02
			c-0.02-0.108-0.076-0.22-0.076-0.324C88.443,211.168,103.055,205.808,126.852,205.808z M162.755,218.42
			c-5.836,2.976-18.6,5.792-35.904,5.792c-17.648,0.004-30.228-2.948-35.556-6.04c1.076-3.252,14.436-7.468,35.7-7.468
			C148.803,210.704,162.307,215.14,162.755,218.42z M88.159,220.736c7.04,5.024,23.3,7.368,38.692,7.368
			c16.564,0,33.24-2.672,40.076-7.812l0.832,7.612c-3.872,3.484-18.932,6.696-39.944,6.696c-21.296,0-36.504-3.296-40.116-6.836
			L88.159,220.736z M84.748,274.412c2.6-1.536,8.532-3.468,16.996-4.936c2.008,1.84,4.648,2.944,7.448,2.944
			c0.856,0,1.724-0.1,2.588-0.308l11.144-2.688c0.844-0.204,1.616-0.536,2.356-0.92c0.916,2.604,2.784,4.876,5.436,6.208
			l10.24,5.152c1.556,0.784,3.24,1.176,4.936,1.176c1.172,0,2.352-0.188,3.5-0.568c2.808-0.932,5.088-2.888,6.408-5.516l4.808-9.56
			c2.736-5.444,0.536-12.104-4.908-14.844l-10.24-5.152c-2.632-1.32-5.624-1.536-8.432-0.608c-2.812,0.932-5.088,2.888-6.408,5.516
			l-0.628,1.248l-1.416-5.876c-1.428-5.924-7.416-9.592-13.336-8.156l-11.144,2.688c-5.924,1.428-9.584,7.412-8.156,13.336
			l2.508,10.404c0.424,1.764,1.272,3.312,2.384,4.6c-7.324,1.3-13.048,2.988-16.132,4.708c-0.072-1.876,0.092-3.884,0.308-5.864
			c0.12-1.124,0.24-2.236,0.312-3.312l2.296-35.04c5.588,4.216,23.12,6.656,40.2,6.656c16.944,0,34.348-2.4,40.08-6.552l3.4,31.124
			c0.16,1.46,0.376,2.956,0.592,4.464c0.408,2.828,0.792,5.716,0.844,8.512c-2.748-1.524-7.584-3.028-13.744-4.252
			c0.016,0.356-0.084,0.716-0.244,1.048c6.948,1.396,11.772,3.076,14,4.432c-0.02,0.908-0.068,1.812-0.196,2.688
			c-0.02,0.136-0.064,0.252-0.088,0.388c-5.08,2.86-21.292,7-43.76,7c-21.82,0-37.732-3.908-43.284-6.752
			C85.128,276.72,84.875,275.608,84.748,274.412z M123.636,261.36c1.16-8.232-0.432-16.828-7.488-21.74
			c0.564-0.108,1.128-0.2,1.684-0.2c3.992,0,7.628,2.728,8.604,6.776l2.028,8.404l-2.648,5.264c-1.036,2.06-1.36,4.292-1.072,6.424
			c-0.716,0.424-1.476,0.784-2.324,0.992l-11.152,2.692c-2.284,0.552-4.664,0.172-6.684-1.064c-2.024-1.236-3.444-3.18-3.992-5.464
			l-2.508-10.404c-1.144-4.744,1.784-9.536,6.528-10.68l10.088-2.436c7.412,4.512,9.008,13.072,7.872,21.144
			C122.475,261.76,123.535,262.06,123.636,261.36z M130.792,254.876l1.8-3.576c1.056-2.1,2.88-3.672,5.132-4.416
			c0.924-0.304,1.868-0.456,2.808-0.456c1.356,0,2.704,0.316,3.944,0.94l9.272,4.664c2.704,8.32-1.584,15.832-7.736,21.288
			c-0.532,0.472,0.252,1.248,0.78,0.78c6.196-5.496,10.444-13.08,8.252-21.372c4.104,2.296,5.736,7.432,3.604,11.672l-4.808,9.56
			c-1.056,2.1-2.88,3.672-5.132,4.416c-2.248,0.748-4.648,0.576-6.752-0.488l-10.24-5.152c-4.356-2.192-6.12-7.524-3.928-11.884
			l2.984-5.932c0.012,0.004,0.028,0,0.04,0.004L130.792,254.876z M135.195,298.116c-7.436,0.428-42.476,1.26-49.38-18.928
			c7.24,3.364,24.28,6.468,42.884,6.468c19.148,0,36.604-3.284,43.456-6.764C168.531,293.92,147.659,297.412,135.195,298.116z
			 M201.243,292.212h-33.376c3.496-2.776,6.248-6.308,7.68-10.824h40.256C212.776,284.972,206.347,289.392,201.243,292.212z
			 M201.571,277.528V268.5h15.936c0.012,2.976,0.024,5.98,0.036,9.028H201.571z"/>
	</g>
</g>
<g>
</g>
<g>
</g>
<g>
</g>
<g>
</g>
<g>
</g>
<g>
</g>
<g>
</g>
<g>
</g>
<g>
</g>
<g>
</g>
<g>
</g>
<g>
</g>
<g>
</g>
<g>
</g>
<g>
</g>
</svg>
